<mxfile host="app.diagrams.net" modified="2023-04-20T15:07:10.985Z" agent="Mozilla/5.0 (Windows NT 10.0; Win64; x64) AppleWebKit/537.36 (KHTML, like Gecko) Chrome/113.0.0.0 Safari/537.36" etag="XdmREhTA-dG-4cdLEj1C" version="21.1.8" type="github">
  <diagram name="Page-1" id="-8sN3UPDvLvvLBqeQGYQ">
    <mxGraphModel dx="1450" dy="941" grid="0" gridSize="10" guides="1" tooltips="1" connect="1" arrows="1" fold="1" page="0" pageScale="1" pageWidth="850" pageHeight="1100" math="0" shadow="0">
      <root>
        <mxCell id="0" />
        <mxCell id="1" parent="0" />
        <mxCell id="wl2WWaKPfZZMzR-r66IU-1" value="email" style="ellipse;whiteSpace=wrap;html=1;fontSize=16;fillColor=#6a00ff;strokeColor=#3700CC;fontColor=#ffffff;" parent="1" vertex="1">
          <mxGeometry x="-232" y="114" width="120" height="46" as="geometry" />
        </mxCell>
        <mxCell id="wl2WWaKPfZZMzR-r66IU-2" value="phone_no" style="ellipse;whiteSpace=wrap;html=1;fontSize=16;fillColor=#6a00ff;strokeColor=#3700CC;fontColor=#ffffff;" parent="1" vertex="1">
          <mxGeometry x="-231" y="180" width="120" height="46" as="geometry" />
        </mxCell>
        <mxCell id="wl2WWaKPfZZMzR-r66IU-3" value="User" style="rounded=0;whiteSpace=wrap;html=1;fontSize=16;" parent="1" vertex="1">
          <mxGeometry x="-60" y="162" width="111" height="40" as="geometry" />
        </mxCell>
        <mxCell id="wl2WWaKPfZZMzR-r66IU-4" value="gender" style="ellipse;whiteSpace=wrap;html=1;fontSize=16;fillColor=#6a00ff;strokeColor=#3700CC;fontColor=#ffffff;" parent="1" vertex="1">
          <mxGeometry x="-231" y="383" width="120" height="46" as="geometry" />
        </mxCell>
        <mxCell id="wl2WWaKPfZZMzR-r66IU-5" value="user_name" style="ellipse;whiteSpace=wrap;html=1;fontSize=16;fillColor=#6a00ff;strokeColor=#3700CC;fontColor=#ffffff;" parent="1" vertex="1">
          <mxGeometry x="-232" y="47" width="120" height="46" as="geometry" />
        </mxCell>
        <mxCell id="wl2WWaKPfZZMzR-r66IU-6" value="location" style="ellipse;whiteSpace=wrap;html=1;fontSize=16;fillColor=#6a00ff;strokeColor=#3700CC;fontColor=#ffffff;" parent="1" vertex="1">
          <mxGeometry x="-233" y="250" width="120" height="46" as="geometry" />
        </mxCell>
        <mxCell id="wl2WWaKPfZZMzR-r66IU-7" value="dob" style="ellipse;whiteSpace=wrap;html=1;fontSize=16;fillColor=#6a00ff;strokeColor=#3700CC;fontColor=#ffffff;" parent="1" vertex="1">
          <mxGeometry x="-233" y="314" width="120" height="46" as="geometry" />
        </mxCell>
        <mxCell id="wl2WWaKPfZZMzR-r66IU-8" value="bio" style="ellipse;whiteSpace=wrap;html=1;fontSize=16;fillColor=#6a00ff;strokeColor=#3700CC;fontColor=#ffffff;" parent="1" vertex="1">
          <mxGeometry x="-232" y="-14" width="120" height="46" as="geometry" />
        </mxCell>
        <mxCell id="wl2WWaKPfZZMzR-r66IU-10" value="" style="endArrow=none;html=1;rounded=0;fontSize=12;startSize=8;endSize=8;curved=1;entryX=0;entryY=0.5;entryDx=0;entryDy=0;exitX=1;exitY=0.5;exitDx=0;exitDy=0;" parent="1" source="wl2WWaKPfZZMzR-r66IU-8" target="wl2WWaKPfZZMzR-r66IU-3" edge="1">
          <mxGeometry width="50" height="50" relative="1" as="geometry">
            <mxPoint x="-103" y="13" as="sourcePoint" />
            <mxPoint x="-53" y="-37" as="targetPoint" />
          </mxGeometry>
        </mxCell>
        <mxCell id="wl2WWaKPfZZMzR-r66IU-13" value="" style="endArrow=none;html=1;rounded=0;fontSize=12;startSize=8;endSize=8;curved=1;entryX=0;entryY=0.5;entryDx=0;entryDy=0;exitX=1;exitY=0.5;exitDx=0;exitDy=0;" parent="1" source="wl2WWaKPfZZMzR-r66IU-6" target="wl2WWaKPfZZMzR-r66IU-3" edge="1">
          <mxGeometry width="50" height="50" relative="1" as="geometry">
            <mxPoint x="-103" y="273" as="sourcePoint" />
            <mxPoint x="-60" y="444" as="targetPoint" />
          </mxGeometry>
        </mxCell>
        <mxCell id="wl2WWaKPfZZMzR-r66IU-14" value="" style="endArrow=none;html=1;rounded=0;fontSize=12;startSize=8;endSize=8;curved=1;exitX=1;exitY=0.5;exitDx=0;exitDy=0;entryX=0;entryY=0.5;entryDx=0;entryDy=0;" parent="1" source="wl2WWaKPfZZMzR-r66IU-7" target="wl2WWaKPfZZMzR-r66IU-3" edge="1">
          <mxGeometry width="50" height="50" relative="1" as="geometry">
            <mxPoint x="-107" y="338" as="sourcePoint" />
            <mxPoint x="-64" y="247" as="targetPoint" />
          </mxGeometry>
        </mxCell>
        <mxCell id="wl2WWaKPfZZMzR-r66IU-15" value="" style="endArrow=none;html=1;rounded=0;fontSize=12;startSize=8;endSize=8;curved=1;entryX=0;entryY=0.5;entryDx=0;entryDy=0;exitX=1;exitY=0.5;exitDx=0;exitDy=0;" parent="1" source="wl2WWaKPfZZMzR-r66IU-4" target="wl2WWaKPfZZMzR-r66IU-3" edge="1">
          <mxGeometry width="50" height="50" relative="1" as="geometry">
            <mxPoint x="-111" y="404" as="sourcePoint" />
            <mxPoint x="-64" y="258" as="targetPoint" />
          </mxGeometry>
        </mxCell>
        <mxCell id="wl2WWaKPfZZMzR-r66IU-16" value="" style="endArrow=none;html=1;rounded=0;fontSize=12;startSize=8;endSize=8;curved=1;entryX=0;entryY=0.5;entryDx=0;entryDy=0;exitX=1;exitY=0.5;exitDx=0;exitDy=0;" parent="1" source="wl2WWaKPfZZMzR-r66IU-2" target="wl2WWaKPfZZMzR-r66IU-3" edge="1">
          <mxGeometry width="50" height="50" relative="1" as="geometry">
            <mxPoint x="-107" y="206" as="sourcePoint" />
            <mxPoint x="-56" y="-16" as="targetPoint" />
          </mxGeometry>
        </mxCell>
        <mxCell id="wl2WWaKPfZZMzR-r66IU-17" value="" style="endArrow=none;html=1;rounded=0;fontSize=12;startSize=8;endSize=8;curved=1;entryX=0;entryY=0.5;entryDx=0;entryDy=0;exitX=1;exitY=0.5;exitDx=0;exitDy=0;" parent="1" source="wl2WWaKPfZZMzR-r66IU-1" target="wl2WWaKPfZZMzR-r66IU-3" edge="1">
          <mxGeometry width="50" height="50" relative="1" as="geometry">
            <mxPoint x="-111" y="138" as="sourcePoint" />
            <mxPoint x="-64" y="114" as="targetPoint" />
          </mxGeometry>
        </mxCell>
        <mxCell id="wl2WWaKPfZZMzR-r66IU-18" value="" style="endArrow=none;html=1;rounded=0;fontSize=12;startSize=8;endSize=8;curved=1;entryX=0;entryY=0.5;entryDx=0;entryDy=0;exitX=1;exitY=0.5;exitDx=0;exitDy=0;" parent="1" source="wl2WWaKPfZZMzR-r66IU-5" target="wl2WWaKPfZZMzR-r66IU-3" edge="1">
          <mxGeometry width="50" height="50" relative="1" as="geometry">
            <mxPoint x="-107" y="70" as="sourcePoint" />
            <mxPoint x="-56" y="114" as="targetPoint" />
          </mxGeometry>
        </mxCell>
        <mxCell id="wl2WWaKPfZZMzR-r66IU-34" value="page_id" style="ellipse;whiteSpace=wrap;html=1;fontSize=16;fillColor=#1ba1e2;fontColor=#ffffff;strokeColor=#006EAF;" parent="1" vertex="1">
          <mxGeometry x="-224" y="555" width="120" height="46" as="geometry" />
        </mxCell>
        <mxCell id="wl2WWaKPfZZMzR-r66IU-35" value="page_name" style="ellipse;whiteSpace=wrap;html=1;fontSize=16;fillColor=#1ba1e2;fontColor=#ffffff;strokeColor=#006EAF;" parent="1" vertex="1">
          <mxGeometry x="-224" y="621" width="120" height="46" as="geometry" />
        </mxCell>
        <mxCell id="wl2WWaKPfZZMzR-r66IU-36" value="Pages" style="rounded=0;whiteSpace=wrap;html=1;fontSize=16;" parent="1" vertex="1">
          <mxGeometry x="-60" y="624" width="111" height="40" as="geometry" />
        </mxCell>
        <mxCell id="wl2WWaKPfZZMzR-r66IU-46" value="" style="endArrow=none;html=1;rounded=0;fontSize=12;startSize=8;endSize=8;curved=1;entryX=0;entryY=0.5;entryDx=0;entryDy=0;exitX=1;exitY=0.5;exitDx=0;exitDy=0;" parent="1" source="wl2WWaKPfZZMzR-r66IU-35" target="wl2WWaKPfZZMzR-r66IU-36" edge="1">
          <mxGeometry width="50" height="50" relative="1" as="geometry">
            <mxPoint x="-98" y="658" as="sourcePoint" />
            <mxPoint x="-47" y="436" as="targetPoint" />
          </mxGeometry>
        </mxCell>
        <mxCell id="wl2WWaKPfZZMzR-r66IU-47" value="" style="endArrow=none;html=1;rounded=0;fontSize=12;startSize=8;endSize=8;curved=1;entryX=0;entryY=0.5;entryDx=0;entryDy=0;exitX=1;exitY=0.5;exitDx=0;exitDy=0;" parent="1" source="wl2WWaKPfZZMzR-r66IU-34" target="wl2WWaKPfZZMzR-r66IU-36" edge="1">
          <mxGeometry width="50" height="50" relative="1" as="geometry">
            <mxPoint x="-102" y="590" as="sourcePoint" />
            <mxPoint x="-55" y="566" as="targetPoint" />
          </mxGeometry>
        </mxCell>
        <mxCell id="wl2WWaKPfZZMzR-r66IU-56" value="friend_id" style="ellipse;whiteSpace=wrap;html=1;fontSize=16;direction=west;" parent="1" vertex="1">
          <mxGeometry x="439" y="75" width="120" height="46" as="geometry" />
        </mxCell>
        <mxCell id="wl2WWaKPfZZMzR-r66IU-58" value="Friends" style="rounded=0;whiteSpace=wrap;html=1;fontSize=16;direction=west;" parent="1" vertex="1">
          <mxGeometry x="291" y="17" width="101" height="40" as="geometry" />
        </mxCell>
        <mxCell id="wl2WWaKPfZZMzR-r66IU-61" value="reaction" style="ellipse;whiteSpace=wrap;html=1;fontSize=16;direction=east;" parent="1" vertex="1">
          <mxGeometry x="435.5" y="146" width="120" height="46" as="geometry" />
        </mxCell>
        <mxCell id="wl2WWaKPfZZMzR-r66IU-67" value="post_id" style="ellipse;whiteSpace=wrap;html=1;fontSize=16;direction=west;fillColor=#fa6800;fontColor=#000000;strokeColor=#C73500;" parent="1" vertex="1">
          <mxGeometry x="954" y="225" width="120" height="46" as="geometry" />
        </mxCell>
        <mxCell id="wl2WWaKPfZZMzR-r66IU-68" value="user_id" style="ellipse;whiteSpace=wrap;html=1;fontSize=16;direction=west;fillColor=#fa6800;fontColor=#000000;strokeColor=#C73500;" parent="1" vertex="1">
          <mxGeometry x="952" y="293" width="120" height="46" as="geometry" />
        </mxCell>
        <mxCell id="wl2WWaKPfZZMzR-r66IU-69" value="shares" style="rounded=0;whiteSpace=wrap;html=1;fontSize=16;direction=west;" parent="1" vertex="1">
          <mxGeometry x="775" y="271" width="111" height="40" as="geometry" />
        </mxCell>
        <mxCell id="wl2WWaKPfZZMzR-r66IU-70" value="" style="endArrow=none;html=1;rounded=0;fontSize=12;startSize=8;endSize=8;curved=1;entryX=0;entryY=0.5;entryDx=0;entryDy=0;exitX=1;exitY=0.5;exitDx=0;exitDy=0;" parent="1" source="wl2WWaKPfZZMzR-r66IU-68" target="wl2WWaKPfZZMzR-r66IU-69" edge="1">
          <mxGeometry width="50" height="50" relative="1" as="geometry">
            <mxPoint x="737" y="305" as="sourcePoint" />
            <mxPoint x="788" y="83" as="targetPoint" />
          </mxGeometry>
        </mxCell>
        <mxCell id="wl2WWaKPfZZMzR-r66IU-71" value="" style="endArrow=none;html=1;rounded=0;fontSize=12;startSize=8;endSize=8;curved=1;entryX=0;entryY=0.5;entryDx=0;entryDy=0;exitX=1;exitY=0.5;exitDx=0;exitDy=0;" parent="1" source="wl2WWaKPfZZMzR-r66IU-67" target="wl2WWaKPfZZMzR-r66IU-69" edge="1">
          <mxGeometry width="50" height="50" relative="1" as="geometry">
            <mxPoint x="733" y="237" as="sourcePoint" />
            <mxPoint x="780" y="213" as="targetPoint" />
          </mxGeometry>
        </mxCell>
        <mxCell id="wl2WWaKPfZZMzR-r66IU-72" value="comment_time" style="ellipse;whiteSpace=wrap;html=1;fontSize=16;direction=west;fillColor=#e3c800;fontColor=#000000;strokeColor=#B09500;" parent="1" vertex="1">
          <mxGeometry x="951" y="463" width="120" height="46" as="geometry" />
        </mxCell>
        <mxCell id="wl2WWaKPfZZMzR-r66IU-73" value="user_id" style="ellipse;whiteSpace=wrap;html=1;fontSize=16;direction=west;fillColor=#e3c800;fontColor=#000000;strokeColor=#B09500;" parent="1" vertex="1">
          <mxGeometry x="954" y="571" width="120" height="46" as="geometry" />
        </mxCell>
        <mxCell id="wl2WWaKPfZZMzR-r66IU-74" value="Comments" style="rounded=0;whiteSpace=wrap;html=1;fontSize=16;direction=west;" parent="1" vertex="1">
          <mxGeometry x="703" y="547" width="111" height="40" as="geometry" />
        </mxCell>
        <mxCell id="wl2WWaKPfZZMzR-r66IU-75" value="" style="endArrow=none;html=1;rounded=0;fontSize=12;startSize=8;endSize=8;curved=1;entryX=0;entryY=0.5;entryDx=0;entryDy=0;exitX=1;exitY=0.5;exitDx=0;exitDy=0;" parent="1" source="wl2WWaKPfZZMzR-r66IU-73" target="wl2WWaKPfZZMzR-r66IU-74" edge="1">
          <mxGeometry width="50" height="50" relative="1" as="geometry">
            <mxPoint x="723" y="583" as="sourcePoint" />
            <mxPoint x="774" y="361" as="targetPoint" />
          </mxGeometry>
        </mxCell>
        <mxCell id="wl2WWaKPfZZMzR-r66IU-76" value="" style="endArrow=none;html=1;rounded=0;fontSize=12;startSize=8;endSize=8;curved=1;entryX=0;entryY=0.5;entryDx=0;entryDy=0;exitX=1;exitY=0.5;exitDx=0;exitDy=0;" parent="1" source="wl2WWaKPfZZMzR-r66IU-72" target="wl2WWaKPfZZMzR-r66IU-74" edge="1">
          <mxGeometry width="50" height="50" relative="1" as="geometry">
            <mxPoint x="719" y="515" as="sourcePoint" />
            <mxPoint x="766" y="491" as="targetPoint" />
          </mxGeometry>
        </mxCell>
        <mxCell id="wl2WWaKPfZZMzR-r66IU-77" value="post_id" style="ellipse;whiteSpace=wrap;html=1;fontSize=16;direction=west;fillColor=#e3c800;fontColor=#000000;strokeColor=#B09500;" parent="1" vertex="1">
          <mxGeometry x="954" y="687" width="120" height="46" as="geometry" />
        </mxCell>
        <mxCell id="wl2WWaKPfZZMzR-r66IU-78" value="comment_id" style="ellipse;whiteSpace=wrap;html=1;fontSize=16;direction=west;fillColor=#e3c800;fontColor=#000000;strokeColor=#B09500;" parent="1" vertex="1">
          <mxGeometry x="954" y="629" width="120" height="46" as="geometry" />
        </mxCell>
        <mxCell id="wl2WWaKPfZZMzR-r66IU-79" value="" style="endArrow=none;html=1;rounded=0;fontSize=12;startSize=8;endSize=8;curved=1;exitX=1;exitY=0.5;exitDx=0;exitDy=0;entryX=0;entryY=0.5;entryDx=0;entryDy=0;" parent="1" source="wl2WWaKPfZZMzR-r66IU-78" target="wl2WWaKPfZZMzR-r66IU-74" edge="1">
          <mxGeometry width="50" height="50" relative="1" as="geometry">
            <mxPoint x="721" y="594" as="sourcePoint" />
            <mxPoint x="870" y="580" as="targetPoint" />
          </mxGeometry>
        </mxCell>
        <mxCell id="wl2WWaKPfZZMzR-r66IU-80" value="" style="endArrow=none;html=1;rounded=0;fontSize=12;startSize=8;endSize=8;curved=1;entryX=0;entryY=0.5;entryDx=0;entryDy=0;exitX=1;exitY=0.5;exitDx=0;exitDy=0;" parent="1" source="wl2WWaKPfZZMzR-r66IU-77" target="wl2WWaKPfZZMzR-r66IU-74" edge="1">
          <mxGeometry width="50" height="50" relative="1" as="geometry">
            <mxPoint x="717" y="526" as="sourcePoint" />
            <mxPoint x="870" y="580" as="targetPoint" />
          </mxGeometry>
        </mxCell>
        <mxCell id="wl2WWaKPfZZMzR-r66IU-82" value="comment_id" style="ellipse;whiteSpace=wrap;html=1;fontSize=16;direction=west;fillColor=#b1ddf0;strokeColor=#10739e;" parent="1" vertex="1">
          <mxGeometry x="956" y="842" width="120" height="46" as="geometry" />
        </mxCell>
        <mxCell id="wl2WWaKPfZZMzR-r66IU-83" value="comment_likes" style="rounded=0;whiteSpace=wrap;html=1;fontSize=16;direction=west;" parent="1" vertex="1">
          <mxGeometry x="707" y="848" width="111" height="40" as="geometry" />
        </mxCell>
        <mxCell id="wl2WWaKPfZZMzR-r66IU-84" value="" style="endArrow=none;html=1;rounded=0;fontSize=12;startSize=8;endSize=8;curved=1;entryX=0;entryY=0.5;entryDx=0;entryDy=0;exitX=1;exitY=0.5;exitDx=0;exitDy=0;" parent="1" source="wl2WWaKPfZZMzR-r66IU-82" target="wl2WWaKPfZZMzR-r66IU-83" edge="1">
          <mxGeometry width="50" height="50" relative="1" as="geometry">
            <mxPoint x="891.999999999995" y="865" as="sourcePoint" />
            <mxPoint x="720" y="660" as="targetPoint" />
          </mxGeometry>
        </mxCell>
        <mxCell id="wl2WWaKPfZZMzR-r66IU-86" value="post_content" style="ellipse;whiteSpace=wrap;html=1;fontSize=16;direction=west;fillColor=#60a917;fontColor=#ffffff;strokeColor=#2D7600;" parent="1" vertex="1">
          <mxGeometry x="544" y="364" width="120" height="46" as="geometry" />
        </mxCell>
        <mxCell id="wl2WWaKPfZZMzR-r66IU-87" value="post_date" style="ellipse;whiteSpace=wrap;html=1;fontSize=16;direction=west;fillColor=#60a917;fontColor=#ffffff;strokeColor=#2D7600;" parent="1" vertex="1">
          <mxGeometry x="542" y="432" width="120" height="46" as="geometry" />
        </mxCell>
        <mxCell id="wl2WWaKPfZZMzR-r66IU-88" value="Posts" style="rounded=0;whiteSpace=wrap;html=1;fontSize=16;direction=west;" parent="1" vertex="1">
          <mxGeometry x="349" y="410" width="111" height="40" as="geometry" />
        </mxCell>
        <mxCell id="wl2WWaKPfZZMzR-r66IU-89" value="" style="endArrow=none;html=1;rounded=0;fontSize=12;startSize=8;endSize=8;curved=1;entryX=0;entryY=0.5;entryDx=0;entryDy=0;exitX=1;exitY=0.5;exitDx=0;exitDy=0;" parent="1" source="wl2WWaKPfZZMzR-r66IU-87" target="wl2WWaKPfZZMzR-r66IU-88" edge="1">
          <mxGeometry width="50" height="50" relative="1" as="geometry">
            <mxPoint x="311" y="444" as="sourcePoint" />
            <mxPoint x="362" y="222" as="targetPoint" />
          </mxGeometry>
        </mxCell>
        <mxCell id="wl2WWaKPfZZMzR-r66IU-90" value="" style="endArrow=none;html=1;rounded=0;fontSize=12;startSize=8;endSize=8;curved=1;entryX=0;entryY=0.5;entryDx=0;entryDy=0;exitX=1;exitY=0.5;exitDx=0;exitDy=0;" parent="1" source="wl2WWaKPfZZMzR-r66IU-86" target="wl2WWaKPfZZMzR-r66IU-88" edge="1">
          <mxGeometry width="50" height="50" relative="1" as="geometry">
            <mxPoint x="307" y="376" as="sourcePoint" />
            <mxPoint x="354" y="352" as="targetPoint" />
          </mxGeometry>
        </mxCell>
        <mxCell id="wl2WWaKPfZZMzR-r66IU-91" value="post_id" style="ellipse;whiteSpace=wrap;html=1;fontSize=16;direction=west;fillColor=#60a917;fontColor=#ffffff;strokeColor=#2D7600;" parent="1" vertex="1">
          <mxGeometry x="542" y="489" width="120" height="46" as="geometry" />
        </mxCell>
        <mxCell id="wl2WWaKPfZZMzR-r66IU-94" value="" style="endArrow=none;html=1;rounded=0;fontSize=12;startSize=8;endSize=8;curved=1;entryX=0;entryY=0.5;entryDx=0;entryDy=0;exitX=1;exitY=0.5;exitDx=0;exitDy=0;" parent="1" source="wl2WWaKPfZZMzR-r66IU-91" target="wl2WWaKPfZZMzR-r66IU-88" edge="1">
          <mxGeometry width="50" height="50" relative="1" as="geometry">
            <mxPoint x="305" y="387" as="sourcePoint" />
            <mxPoint x="458" y="441" as="targetPoint" />
          </mxGeometry>
        </mxCell>
        <mxCell id="wl2WWaKPfZZMzR-r66IU-95" value="user_id" style="ellipse;whiteSpace=wrap;html=1;fontSize=16;direction=west;fillColor=#60a917;fontColor=#ffffff;strokeColor=#2D7600;" parent="1" vertex="1">
          <mxGeometry x="544" y="302" width="120" height="46" as="geometry" />
        </mxCell>
        <mxCell id="wl2WWaKPfZZMzR-r66IU-96" value="" style="endArrow=none;html=1;rounded=0;fontSize=12;startSize=8;endSize=8;curved=1;exitX=1;exitY=0.5;exitDx=0;exitDy=0;entryX=0;entryY=0.5;entryDx=0;entryDy=0;" parent="1" source="wl2WWaKPfZZMzR-r66IU-95" target="wl2WWaKPfZZMzR-r66IU-88" edge="1">
          <mxGeometry width="50" height="50" relative="1" as="geometry">
            <mxPoint x="307" y="314" as="sourcePoint" />
            <mxPoint x="460" y="368" as="targetPoint" />
          </mxGeometry>
        </mxCell>
        <mxCell id="wl2WWaKPfZZMzR-r66IU-97" value="media_id" style="ellipse;whiteSpace=wrap;html=1;fontSize=16;direction=west;fillColor=#b0e3e6;strokeColor=#0e8088;" parent="1" vertex="1">
          <mxGeometry x="950" y="102" width="120" height="46" as="geometry" />
        </mxCell>
        <mxCell id="wl2WWaKPfZZMzR-r66IU-98" value="media_content" style="ellipse;whiteSpace=wrap;html=1;fontSize=16;direction=west;fillColor=#b0e3e6;strokeColor=#0e8088;" parent="1" vertex="1">
          <mxGeometry x="948" y="170" width="120" height="46" as="geometry" />
        </mxCell>
        <mxCell id="wl2WWaKPfZZMzR-r66IU-99" value="Media" style="rounded=0;whiteSpace=wrap;html=1;fontSize=16;direction=west;" parent="1" vertex="1">
          <mxGeometry x="771" y="148" width="111" height="40" as="geometry" />
        </mxCell>
        <mxCell id="wl2WWaKPfZZMzR-r66IU-100" value="" style="endArrow=none;html=1;rounded=0;fontSize=12;startSize=8;endSize=8;curved=1;entryX=0;entryY=0.5;entryDx=0;entryDy=0;exitX=1;exitY=0.5;exitDx=0;exitDy=0;" parent="1" source="wl2WWaKPfZZMzR-r66IU-98" target="wl2WWaKPfZZMzR-r66IU-99" edge="1">
          <mxGeometry width="50" height="50" relative="1" as="geometry">
            <mxPoint x="733" y="182" as="sourcePoint" />
            <mxPoint x="784" y="-40" as="targetPoint" />
          </mxGeometry>
        </mxCell>
        <mxCell id="wl2WWaKPfZZMzR-r66IU-101" value="" style="endArrow=none;html=1;rounded=0;fontSize=12;startSize=8;endSize=8;curved=1;entryX=0;entryY=0.5;entryDx=0;entryDy=0;exitX=1;exitY=0.5;exitDx=0;exitDy=0;" parent="1" source="wl2WWaKPfZZMzR-r66IU-97" target="wl2WWaKPfZZMzR-r66IU-99" edge="1">
          <mxGeometry width="50" height="50" relative="1" as="geometry">
            <mxPoint x="729" y="114" as="sourcePoint" />
            <mxPoint x="776" y="90" as="targetPoint" />
          </mxGeometry>
        </mxCell>
        <mxCell id="wl2WWaKPfZZMzR-r66IU-104" value="comment_text" style="ellipse;whiteSpace=wrap;html=1;fontSize=16;direction=west;fillColor=#e3c800;fontColor=#000000;strokeColor=#B09500;" parent="1" vertex="1">
          <mxGeometry x="956" y="517" width="120" height="46" as="geometry" />
        </mxCell>
        <mxCell id="wl2WWaKPfZZMzR-r66IU-105" value="" style="endArrow=none;html=1;rounded=0;fontSize=12;startSize=8;endSize=8;curved=1;exitX=1;exitY=0.5;exitDx=0;exitDy=0;entryX=0;entryY=0.5;entryDx=0;entryDy=0;" parent="1" source="wl2WWaKPfZZMzR-r66IU-104" target="wl2WWaKPfZZMzR-r66IU-74" edge="1">
          <mxGeometry width="50" height="50" relative="1" as="geometry">
            <mxPoint x="724" y="628" as="sourcePoint" />
            <mxPoint x="873" y="567" as="targetPoint" />
          </mxGeometry>
        </mxCell>
        <mxCell id="wl2WWaKPfZZMzR-r66IU-106" value="have" style="rhombus;whiteSpace=wrap;html=1;fontSize=16;" parent="1" vertex="1">
          <mxGeometry x="117" y="397" width="116" height="66" as="geometry" />
        </mxCell>
        <mxCell id="wl2WWaKPfZZMzR-r66IU-107" value="" style="endArrow=none;html=1;rounded=0;fontSize=12;startSize=8;endSize=8;curved=1;entryX=1;entryY=0.5;entryDx=0;entryDy=0;exitX=1;exitY=0.5;exitDx=0;exitDy=0;" parent="1" source="wl2WWaKPfZZMzR-r66IU-106" target="wl2WWaKPfZZMzR-r66IU-88" edge="1">
          <mxGeometry width="50" height="50" relative="1" as="geometry">
            <mxPoint x="237" y="415" as="sourcePoint" />
            <mxPoint x="236" y="388" as="targetPoint" />
          </mxGeometry>
        </mxCell>
        <mxCell id="wl2WWaKPfZZMzR-r66IU-108" value="" style="endArrow=none;html=1;rounded=0;fontSize=12;startSize=8;endSize=8;entryX=0;entryY=0.5;entryDx=0;entryDy=0;exitX=1;exitY=0.5;exitDx=0;exitDy=0;edgeStyle=orthogonalEdgeStyle;" parent="1" source="wl2WWaKPfZZMzR-r66IU-3" target="wl2WWaKPfZZMzR-r66IU-106" edge="1">
          <mxGeometry width="50" height="50" relative="1" as="geometry">
            <mxPoint x="55" y="187" as="sourcePoint" />
            <mxPoint x="122" y="180" as="targetPoint" />
            <Array as="points">
              <mxPoint x="118" y="182" />
            </Array>
          </mxGeometry>
        </mxCell>
        <mxCell id="wl2WWaKPfZZMzR-r66IU-112" value="has" style="rhombus;whiteSpace=wrap;html=1;fontSize=16;direction=east;" parent="1" vertex="1">
          <mxGeometry x="344" y="255" width="116" height="66" as="geometry" />
        </mxCell>
        <mxCell id="wl2WWaKPfZZMzR-r66IU-113" value="" style="endArrow=none;html=1;rounded=0;fontSize=12;startSize=8;endSize=8;entryX=1;entryY=0.5;entryDx=0;entryDy=0;exitX=1;exitY=0.5;exitDx=0;exitDy=0;edgeStyle=orthogonalEdgeStyle;" parent="1" source="wl2WWaKPfZZMzR-r66IU-112" target="wl2WWaKPfZZMzR-r66IU-69" edge="1">
          <mxGeometry width="50" height="50" relative="1" as="geometry">
            <mxPoint x="657" y="152" as="sourcePoint" />
            <mxPoint x="721" y="162" as="targetPoint" />
            <Array as="points">
              <mxPoint x="759" y="288" />
            </Array>
          </mxGeometry>
        </mxCell>
        <mxCell id="wl2WWaKPfZZMzR-r66IU-115" value="have" style="rhombus;whiteSpace=wrap;html=1;fontSize=16;direction=north;" parent="1" vertex="1">
          <mxGeometry x="678" y="641" width="163" height="70" as="geometry" />
        </mxCell>
        <mxCell id="wl2WWaKPfZZMzR-r66IU-116" value="" style="endArrow=none;html=1;rounded=0;fontSize=12;startSize=8;endSize=8;curved=1;entryX=1;entryY=0.5;entryDx=0;entryDy=0;exitX=0.5;exitY=0;exitDx=0;exitDy=0;" parent="1" source="wl2WWaKPfZZMzR-r66IU-74" target="wl2WWaKPfZZMzR-r66IU-115" edge="1">
          <mxGeometry width="50" height="50" relative="1" as="geometry">
            <mxPoint x="873" y="646" as="sourcePoint" />
            <mxPoint x="809" y="636" as="targetPoint" />
          </mxGeometry>
        </mxCell>
        <mxCell id="wl2WWaKPfZZMzR-r66IU-117" value="" style="endArrow=none;html=1;rounded=0;fontSize=12;startSize=8;endSize=8;curved=1;entryX=0.5;entryY=1;entryDx=0;entryDy=0;exitX=0;exitY=0.5;exitDx=0;exitDy=0;" parent="1" source="wl2WWaKPfZZMzR-r66IU-115" target="wl2WWaKPfZZMzR-r66IU-83" edge="1">
          <mxGeometry width="50" height="50" relative="1" as="geometry">
            <mxPoint x="694" y="643" as="sourcePoint" />
            <mxPoint x="623" y="645" as="targetPoint" />
          </mxGeometry>
        </mxCell>
        <mxCell id="wl2WWaKPfZZMzR-r66IU-118" value="" style="endArrow=none;html=1;rounded=0;fontSize=12;startSize=8;endSize=8;curved=1;exitX=0.5;exitY=1;exitDx=0;exitDy=0;entryX=0.5;entryY=1;entryDx=0;entryDy=0;" parent="1" source="wl2WWaKPfZZMzR-r66IU-88" target="wl2WWaKPfZZMzR-r66IU-112" edge="1">
          <mxGeometry width="50" height="50" relative="1" as="geometry">
            <mxPoint x="364" y="352" as="sourcePoint" />
            <mxPoint x="429" y="261" as="targetPoint" />
          </mxGeometry>
        </mxCell>
        <mxCell id="wl2WWaKPfZZMzR-r66IU-124" value="" style="endArrow=none;html=1;rounded=0;fontSize=12;startSize=8;endSize=8;edgeStyle=orthogonalEdgeStyle;exitX=1;exitY=0.75;exitDx=0;exitDy=0;entryX=1;entryY=0.5;entryDx=0;entryDy=0;" parent="1" source="wl2WWaKPfZZMzR-r66IU-99" target="wl2WWaKPfZZMzR-r66IU-112" edge="1">
          <mxGeometry width="50" height="50" relative="1" as="geometry">
            <mxPoint x="334" y="74" as="sourcePoint" />
            <mxPoint x="549" y="152" as="targetPoint" />
          </mxGeometry>
        </mxCell>
        <mxCell id="wl2WWaKPfZZMzR-r66IU-129" value="" style="endArrow=none;html=1;rounded=0;fontSize=12;startSize=8;endSize=8;edgeStyle=orthogonalEdgeStyle;entryX=0.5;entryY=1;entryDx=0;entryDy=0;exitX=1;exitY=0.5;exitDx=0;exitDy=0;" parent="1" source="wl2WWaKPfZZMzR-r66IU-112" target="wl2WWaKPfZZMzR-r66IU-74" edge="1">
          <mxGeometry width="50" height="50" relative="1" as="geometry">
            <mxPoint x="476" y="29" as="sourcePoint" />
            <mxPoint x="830" y="181" as="targetPoint" />
            <Array as="points">
              <mxPoint x="758" y="288" />
            </Array>
          </mxGeometry>
        </mxCell>
        <mxCell id="wl2WWaKPfZZMzR-r66IU-130" value="Calls" style="rhombus;whiteSpace=wrap;html=1;fontSize=16;direction=east;" parent="1" vertex="1">
          <mxGeometry x="283.5" y="-117" width="116" height="66" as="geometry" />
        </mxCell>
        <mxCell id="wl2WWaKPfZZMzR-r66IU-132" value="" style="endArrow=none;html=1;rounded=0;fontSize=12;startSize=8;endSize=8;entryX=0;entryY=0.5;entryDx=0;entryDy=0;exitX=0.75;exitY=0;exitDx=0;exitDy=0;edgeStyle=orthogonalEdgeStyle;" parent="1" source="wl2WWaKPfZZMzR-r66IU-3" target="wl2WWaKPfZZMzR-r66IU-130" edge="1">
          <mxGeometry width="50" height="50" relative="1" as="geometry">
            <mxPoint x="-3" y="62" as="sourcePoint" />
            <mxPoint x="68" y="60" as="targetPoint" />
            <Array as="points">
              <mxPoint x="-4" y="162" />
              <mxPoint x="-4" y="-84" />
            </Array>
          </mxGeometry>
        </mxCell>
        <mxCell id="wl2WWaKPfZZMzR-r66IU-133" value="follows" style="rhombus;whiteSpace=wrap;html=1;fontSize=16;" parent="1" vertex="1">
          <mxGeometry x="-65" y="389" width="116" height="66" as="geometry" />
        </mxCell>
        <mxCell id="wl2WWaKPfZZMzR-r66IU-134" value="" style="endArrow=none;html=1;rounded=0;fontSize=12;startSize=8;endSize=8;curved=1;entryX=0.5;entryY=0;entryDx=0;entryDy=0;exitX=0.5;exitY=1;exitDx=0;exitDy=0;" parent="1" source="wl2WWaKPfZZMzR-r66IU-3" target="wl2WWaKPfZZMzR-r66IU-133" edge="1">
          <mxGeometry width="50" height="50" relative="1" as="geometry">
            <mxPoint x="44" y="301" as="sourcePoint" />
            <mxPoint x="-23" y="303" as="targetPoint" />
          </mxGeometry>
        </mxCell>
        <mxCell id="wl2WWaKPfZZMzR-r66IU-135" value="" style="endArrow=none;html=1;rounded=0;fontSize=12;startSize=8;endSize=8;curved=1;entryX=0.5;entryY=0;entryDx=0;entryDy=0;exitX=0.5;exitY=1;exitDx=0;exitDy=0;" parent="1" source="wl2WWaKPfZZMzR-r66IU-133" target="wl2WWaKPfZZMzR-r66IU-36" edge="1">
          <mxGeometry width="50" height="50" relative="1" as="geometry">
            <mxPoint x="90" y="416" as="sourcePoint" />
            <mxPoint x="90" y="624" as="targetPoint" />
          </mxGeometry>
        </mxCell>
        <mxCell id="wl2WWaKPfZZMzR-r66IU-136" value="have" style="rhombus;whiteSpace=wrap;html=1;fontSize=16;" parent="1" vertex="1">
          <mxGeometry x="55" y="99" width="116" height="66" as="geometry" />
        </mxCell>
        <mxCell id="wl2WWaKPfZZMzR-r66IU-138" value="" style="endArrow=none;html=1;rounded=0;fontSize=12;startSize=8;endSize=8;entryX=1;entryY=0.5;entryDx=0;entryDy=0;edgeStyle=orthogonalEdgeStyle;exitX=1;exitY=0.5;exitDx=0;exitDy=0;" parent="1" source="wl2WWaKPfZZMzR-r66IU-136" target="wl2WWaKPfZZMzR-r66IU-58" edge="1">
          <mxGeometry width="50" height="50" relative="1" as="geometry">
            <mxPoint x="171" y="145" as="sourcePoint" />
            <mxPoint x="83.13999999999999" y="201" as="targetPoint" />
            <Array as="points">
              <mxPoint x="284" y="132" />
              <mxPoint x="284" y="37" />
            </Array>
          </mxGeometry>
        </mxCell>
        <mxCell id="wl2WWaKPfZZMzR-r66IU-139" value="is a" style="rhombus;whiteSpace=wrap;html=1;fontSize=16;" parent="1" vertex="1">
          <mxGeometry x="97" y="4" width="121" height="66" as="geometry" />
        </mxCell>
        <mxCell id="wl2WWaKPfZZMzR-r66IU-142" value="have" style="rhombus;whiteSpace=wrap;html=1;fontSize=16;" parent="1" vertex="1">
          <mxGeometry x="211" y="611" width="116" height="66" as="geometry" />
        </mxCell>
        <mxCell id="wl2WWaKPfZZMzR-r66IU-143" value="" style="endArrow=none;html=1;rounded=0;fontSize=12;startSize=8;endSize=8;entryX=0.75;entryY=0;entryDx=0;entryDy=0;exitX=1;exitY=0.5;exitDx=0;exitDy=0;edgeStyle=orthogonalEdgeStyle;" parent="1" source="wl2WWaKPfZZMzR-r66IU-142" target="wl2WWaKPfZZMzR-r66IU-88" edge="1">
          <mxGeometry width="50" height="50" relative="1" as="geometry">
            <mxPoint x="375.00000000000045" y="649" as="sourcePoint" />
            <mxPoint x="453" y="364" as="targetPoint" />
          </mxGeometry>
        </mxCell>
        <mxCell id="wl2WWaKPfZZMzR-r66IU-144" value="" style="endArrow=none;html=1;rounded=0;fontSize=12;startSize=8;endSize=8;curved=1;entryX=0;entryY=0.5;entryDx=0;entryDy=0;exitX=1;exitY=0.5;exitDx=0;exitDy=0;" parent="1" source="wl2WWaKPfZZMzR-r66IU-36" target="wl2WWaKPfZZMzR-r66IU-142" edge="1">
          <mxGeometry width="50" height="50" relative="1" as="geometry">
            <mxPoint x="155" y="358" as="sourcePoint" />
            <mxPoint x="226" y="356" as="targetPoint" />
          </mxGeometry>
        </mxCell>
        <mxCell id="wl2WWaKPfZZMzR-r66IU-165" value="images" style="ellipse;whiteSpace=wrap;html=1;fontSize=16;fillColor=#6d8764;strokeColor=#3A5431;fontColor=#ffffff;" parent="1" vertex="1">
          <mxGeometry x="-223" y="858" width="120" height="46" as="geometry" />
        </mxCell>
        <mxCell id="wl2WWaKPfZZMzR-r66IU-166" value="description" style="ellipse;whiteSpace=wrap;html=1;fontSize=16;fillColor=#6d8764;strokeColor=#3A5431;fontColor=#ffffff;" parent="1" vertex="1">
          <mxGeometry x="-222" y="924" width="120" height="46" as="geometry" />
        </mxCell>
        <mxCell id="wl2WWaKPfZZMzR-r66IU-167" value="Product" style="rounded=0;whiteSpace=wrap;html=1;fontSize=16;" parent="1" vertex="1">
          <mxGeometry x="-54" y="868" width="111" height="40" as="geometry" />
        </mxCell>
        <mxCell id="wl2WWaKPfZZMzR-r66IU-169" value="product_name" style="ellipse;whiteSpace=wrap;html=1;fontSize=16;fillColor=#6d8764;strokeColor=#3A5431;fontColor=#ffffff;" parent="1" vertex="1">
          <mxGeometry x="-223" y="791" width="120" height="46" as="geometry" />
        </mxCell>
        <mxCell id="wl2WWaKPfZZMzR-r66IU-170" value="price" style="ellipse;whiteSpace=wrap;html=1;fontSize=16;fillColor=#6d8764;strokeColor=#3A5431;fontColor=#ffffff;" parent="1" vertex="1">
          <mxGeometry x="-224" y="994" width="120" height="46" as="geometry" />
        </mxCell>
        <mxCell id="wl2WWaKPfZZMzR-r66IU-172" value="product_id" style="ellipse;whiteSpace=wrap;html=1;fontSize=16;fillColor=#6d8764;strokeColor=#3A5431;fontColor=#ffffff;" parent="1" vertex="1">
          <mxGeometry x="-223" y="730" width="120" height="46" as="geometry" />
        </mxCell>
        <mxCell id="wl2WWaKPfZZMzR-r66IU-173" value="" style="endArrow=none;html=1;rounded=0;fontSize=12;startSize=8;endSize=8;curved=1;entryX=0;entryY=0.5;entryDx=0;entryDy=0;exitX=1;exitY=0.5;exitDx=0;exitDy=0;" parent="1" source="wl2WWaKPfZZMzR-r66IU-172" target="wl2WWaKPfZZMzR-r66IU-167" edge="1">
          <mxGeometry width="50" height="50" relative="1" as="geometry">
            <mxPoint x="-97" y="744" as="sourcePoint" />
            <mxPoint x="-47" y="694" as="targetPoint" />
          </mxGeometry>
        </mxCell>
        <mxCell id="wl2WWaKPfZZMzR-r66IU-174" value="" style="endArrow=none;html=1;rounded=0;fontSize=12;startSize=8;endSize=8;curved=1;entryX=0;entryY=0.5;entryDx=0;entryDy=0;exitX=1;exitY=0.5;exitDx=0;exitDy=0;" parent="1" source="wl2WWaKPfZZMzR-r66IU-170" target="wl2WWaKPfZZMzR-r66IU-167" edge="1">
          <mxGeometry width="50" height="50" relative="1" as="geometry">
            <mxPoint x="-97" y="1004" as="sourcePoint" />
            <mxPoint x="-54" y="1175" as="targetPoint" />
          </mxGeometry>
        </mxCell>
        <mxCell id="wl2WWaKPfZZMzR-r66IU-177" value="" style="endArrow=none;html=1;rounded=0;fontSize=12;startSize=8;endSize=8;curved=1;entryX=0;entryY=0.5;entryDx=0;entryDy=0;exitX=1;exitY=0.5;exitDx=0;exitDy=0;" parent="1" source="wl2WWaKPfZZMzR-r66IU-166" target="wl2WWaKPfZZMzR-r66IU-167" edge="1">
          <mxGeometry width="50" height="50" relative="1" as="geometry">
            <mxPoint x="-101" y="937" as="sourcePoint" />
            <mxPoint x="-50" y="715" as="targetPoint" />
          </mxGeometry>
        </mxCell>
        <mxCell id="wl2WWaKPfZZMzR-r66IU-178" value="" style="endArrow=none;html=1;rounded=0;fontSize=12;startSize=8;endSize=8;curved=1;entryX=0;entryY=0.5;entryDx=0;entryDy=0;exitX=1;exitY=0.5;exitDx=0;exitDy=0;" parent="1" source="wl2WWaKPfZZMzR-r66IU-165" target="wl2WWaKPfZZMzR-r66IU-167" edge="1">
          <mxGeometry width="50" height="50" relative="1" as="geometry">
            <mxPoint x="-105" y="869" as="sourcePoint" />
            <mxPoint x="-58" y="845" as="targetPoint" />
          </mxGeometry>
        </mxCell>
        <mxCell id="wl2WWaKPfZZMzR-r66IU-179" value="" style="endArrow=none;html=1;rounded=0;fontSize=12;startSize=8;endSize=8;curved=1;entryX=0;entryY=0.5;entryDx=0;entryDy=0;exitX=1;exitY=0.5;exitDx=0;exitDy=0;" parent="1" source="wl2WWaKPfZZMzR-r66IU-169" target="wl2WWaKPfZZMzR-r66IU-167" edge="1">
          <mxGeometry width="50" height="50" relative="1" as="geometry">
            <mxPoint x="-101" y="801" as="sourcePoint" />
            <mxPoint x="-50" y="845" as="targetPoint" />
          </mxGeometry>
        </mxCell>
        <mxCell id="wl2WWaKPfZZMzR-r66IU-182" value="sells" style="rhombus;whiteSpace=wrap;html=1;fontSize=16;" parent="1" vertex="1">
          <mxGeometry x="-59" y="720" width="116" height="66" as="geometry" />
        </mxCell>
        <mxCell id="wl2WWaKPfZZMzR-r66IU-183" value="" style="endArrow=none;html=1;rounded=0;fontSize=12;startSize=8;endSize=8;curved=1;entryX=0.5;entryY=0;entryDx=0;entryDy=0;exitX=0.5;exitY=1;exitDx=0;exitDy=0;" parent="1" source="wl2WWaKPfZZMzR-r66IU-36" target="wl2WWaKPfZZMzR-r66IU-182" edge="1">
          <mxGeometry width="50" height="50" relative="1" as="geometry">
            <mxPoint x="-4.5" y="661" as="sourcePoint" />
            <mxPoint x="-17" y="762" as="targetPoint" />
          </mxGeometry>
        </mxCell>
        <mxCell id="wl2WWaKPfZZMzR-r66IU-184" value="" style="endArrow=none;html=1;rounded=0;fontSize=12;startSize=8;endSize=8;curved=1;entryX=0.5;entryY=0;entryDx=0;entryDy=0;exitX=0.5;exitY=1;exitDx=0;exitDy=0;" parent="1" source="wl2WWaKPfZZMzR-r66IU-182" target="wl2WWaKPfZZMzR-r66IU-167" edge="1">
          <mxGeometry width="50" height="50" relative="1" as="geometry">
            <mxPoint x="96" y="875" as="sourcePoint" />
            <mxPoint x="2" y="1083" as="targetPoint" />
          </mxGeometry>
        </mxCell>
        <mxCell id="wl2WWaKPfZZMzR-r66IU-188" value="" style="endArrow=none;html=1;rounded=0;fontSize=12;startSize=8;endSize=8;entryX=0.5;entryY=0;entryDx=0;entryDy=0;exitX=1;exitY=0.75;exitDx=0;exitDy=0;edgeStyle=orthogonalEdgeStyle;" parent="1" source="wl2WWaKPfZZMzR-r66IU-3" target="wl2WWaKPfZZMzR-r66IU-187" edge="1">
          <mxGeometry width="50" height="50" relative="1" as="geometry">
            <mxPoint x="51" y="192" as="sourcePoint" />
            <mxPoint x="57" y="878" as="targetPoint" />
            <Array as="points">
              <mxPoint x="68" y="192" />
              <mxPoint x="68" y="546" />
              <mxPoint x="461" y="546" />
            </Array>
          </mxGeometry>
        </mxCell>
        <mxCell id="wl2WWaKPfZZMzR-r66IU-187" value="Buys" style="rhombus;whiteSpace=wrap;html=1;fontSize=16;" parent="1" vertex="1">
          <mxGeometry x="403" y="622" width="116" height="66" as="geometry" />
        </mxCell>
        <mxCell id="wl2WWaKPfZZMzR-r66IU-189" value="" style="endArrow=none;html=1;rounded=0;fontSize=12;startSize=8;endSize=8;entryX=0.5;entryY=1;entryDx=0;entryDy=0;exitX=1;exitY=0.5;exitDx=0;exitDy=0;edgeStyle=orthogonalEdgeStyle;" parent="1" source="wl2WWaKPfZZMzR-r66IU-167" target="wl2WWaKPfZZMzR-r66IU-187" edge="1">
          <mxGeometry width="50" height="50" relative="1" as="geometry">
            <mxPoint x="207" y="841" as="sourcePoint" />
            <mxPoint x="257" y="791" as="targetPoint" />
          </mxGeometry>
        </mxCell>
        <mxCell id="wl2WWaKPfZZMzR-r66IU-192" value="" style="endArrow=none;html=1;rounded=0;fontSize=12;startSize=8;endSize=8;entryX=0.5;entryY=0;entryDx=0;entryDy=0;exitX=0;exitY=0.5;exitDx=0;exitDy=0;edgeStyle=orthogonalEdgeStyle;" parent="1" source="wl2WWaKPfZZMzR-r66IU-136" target="wl2WWaKPfZZMzR-r66IU-3" edge="1">
          <mxGeometry width="50" height="50" relative="1" as="geometry">
            <mxPoint x="-22" y="-8" as="sourcePoint" />
            <mxPoint x="-266" y="47" as="targetPoint" />
          </mxGeometry>
        </mxCell>
        <mxCell id="wl2WWaKPfZZMzR-r66IU-193" value="reacts to" style="rhombus;whiteSpace=wrap;html=1;fontSize=16;direction=east;" parent="1" vertex="1">
          <mxGeometry x="283.5" y="136" width="116" height="66" as="geometry" />
        </mxCell>
        <mxCell id="wl2WWaKPfZZMzR-r66IU-194" value="" style="endArrow=none;html=1;rounded=0;fontSize=12;startSize=8;endSize=8;edgeStyle=orthogonalEdgeStyle;entryX=0.5;entryY=0;entryDx=0;entryDy=0;exitX=0.5;exitY=0;exitDx=0;exitDy=0;" parent="1" source="wl2WWaKPfZZMzR-r66IU-58" target="wl2WWaKPfZZMzR-r66IU-193" edge="1">
          <mxGeometry width="50" height="50" relative="1" as="geometry">
            <mxPoint x="392" y="27" as="sourcePoint" />
            <mxPoint x="96" y="-248" as="targetPoint" />
          </mxGeometry>
        </mxCell>
        <mxCell id="wl2WWaKPfZZMzR-r66IU-195" value="" style="endArrow=none;html=1;rounded=0;fontSize=12;startSize=8;endSize=8;entryX=1;entryY=0.75;entryDx=0;entryDy=0;exitX=0.5;exitY=1;exitDx=0;exitDy=0;edgeStyle=orthogonalEdgeStyle;" parent="1" source="wl2WWaKPfZZMzR-r66IU-193" target="wl2WWaKPfZZMzR-r66IU-88" edge="1">
          <mxGeometry width="50" height="50" relative="1" as="geometry">
            <mxPoint x="206" y="344.92" as="sourcePoint" />
            <mxPoint x="273" y="347.92" as="targetPoint" />
            <Array as="points">
              <mxPoint x="342" y="415" />
              <mxPoint x="349" y="415" />
            </Array>
          </mxGeometry>
        </mxCell>
        <mxCell id="wl2WWaKPfZZMzR-r66IU-196" value="" style="endArrow=none;html=1;rounded=0;fontSize=12;startSize=8;endSize=8;curved=1;entryX=1;entryY=0.5;entryDx=0;entryDy=0;exitX=0;exitY=0.5;exitDx=0;exitDy=0;" parent="1" source="wl2WWaKPfZZMzR-r66IU-61" target="wl2WWaKPfZZMzR-r66IU-193" edge="1">
          <mxGeometry width="50" height="50" relative="1" as="geometry">
            <mxPoint x="499.5" y="163" as="sourcePoint" />
            <mxPoint x="416.50000000000045" y="169" as="targetPoint" />
            <Array as="points">
              <mxPoint x="424.5" y="169" />
            </Array>
          </mxGeometry>
        </mxCell>
        <mxCell id="wl2WWaKPfZZMzR-r66IU-200" value="" style="endArrow=none;html=1;rounded=0;fontSize=12;startSize=8;endSize=8;curved=1;entryX=1;entryY=0.5;entryDx=0;entryDy=0;exitX=0;exitY=0.25;exitDx=0;exitDy=0;" parent="1" source="wl2WWaKPfZZMzR-r66IU-58" target="wl2WWaKPfZZMzR-r66IU-56" edge="1">
          <mxGeometry width="50" height="50" relative="1" as="geometry">
            <mxPoint x="388" y="30" as="sourcePoint" />
            <mxPoint x="438" y="-20" as="targetPoint" />
          </mxGeometry>
        </mxCell>
        <mxCell id="wl2WWaKPfZZMzR-r66IU-201" value="" style="endArrow=none;html=1;rounded=0;fontSize=12;startSize=8;endSize=8;entryX=0.5;entryY=1;entryDx=0;entryDy=0;exitX=0.5;exitY=1;exitDx=0;exitDy=0;edgeStyle=orthogonalEdgeStyle;" parent="1" source="wl2WWaKPfZZMzR-r66IU-58" target="wl2WWaKPfZZMzR-r66IU-130" edge="1">
          <mxGeometry width="50" height="50" relative="1" as="geometry">
            <mxPoint x="220" y="-76" as="sourcePoint" />
            <mxPoint x="438" y="-20" as="targetPoint" />
          </mxGeometry>
        </mxCell>
        <mxCell id="wl2WWaKPfZZMzR-r66IU-206" value="date" style="ellipse;whiteSpace=wrap;html=1;fontSize=16;fillColor=#d80073;strokeColor=#A50040;fontColor=#ffffff;" parent="1" vertex="1">
          <mxGeometry x="414" y="-195" width="120" height="46" as="geometry" />
        </mxCell>
        <mxCell id="wl2WWaKPfZZMzR-r66IU-207" value="microphone" style="ellipse;whiteSpace=wrap;html=1;fontSize=16;fillColor=#d80073;strokeColor=#A50040;fontColor=#ffffff;" parent="1" vertex="1">
          <mxGeometry x="414" y="-45" width="120" height="46" as="geometry" />
        </mxCell>
        <mxCell id="wl2WWaKPfZZMzR-r66IU-209" value="duration" style="ellipse;whiteSpace=wrap;html=1;fontSize=16;fillColor=#d80073;strokeColor=#A50040;fontColor=#ffffff;" parent="1" vertex="1">
          <mxGeometry x="410" y="-146" width="120" height="46" as="geometry" />
        </mxCell>
        <mxCell id="wl2WWaKPfZZMzR-r66IU-210" value="video" style="ellipse;whiteSpace=wrap;html=1;fontSize=16;fillColor=#d80073;strokeColor=#A50040;fontColor=#ffffff;" parent="1" vertex="1">
          <mxGeometry x="414" y="-97" width="120" height="46" as="geometry" />
        </mxCell>
        <mxCell id="wl2WWaKPfZZMzR-r66IU-212" value="" style="endArrow=none;html=1;rounded=0;fontSize=12;startSize=8;endSize=8;curved=1;entryX=1;entryY=0.5;entryDx=0;entryDy=0;exitX=0;exitY=0.5;exitDx=0;exitDy=0;fillColor=#d80073;strokeColor=#000000;" parent="1" source="wl2WWaKPfZZMzR-r66IU-206" target="wl2WWaKPfZZMzR-r66IU-130" edge="1">
          <mxGeometry width="50" height="50" relative="1" as="geometry">
            <mxPoint x="-102" y="19" as="sourcePoint" />
            <mxPoint x="-50" y="192" as="targetPoint" />
          </mxGeometry>
        </mxCell>
        <mxCell id="wl2WWaKPfZZMzR-r66IU-213" value="" style="endArrow=none;html=1;rounded=0;fontSize=12;startSize=8;endSize=8;curved=1;entryX=1;entryY=0.5;entryDx=0;entryDy=0;exitX=0;exitY=0.5;exitDx=0;exitDy=0;fillColor=#d80073;strokeColor=#000000;" parent="1" source="wl2WWaKPfZZMzR-r66IU-207" target="wl2WWaKPfZZMzR-r66IU-130" edge="1">
          <mxGeometry width="50" height="50" relative="1" as="geometry">
            <mxPoint x="424" y="-215" as="sourcePoint" />
            <mxPoint x="410" y="-74" as="targetPoint" />
          </mxGeometry>
        </mxCell>
        <mxCell id="wl2WWaKPfZZMzR-r66IU-214" value="" style="endArrow=none;html=1;rounded=0;fontSize=12;startSize=8;endSize=8;curved=1;entryX=1;entryY=0.5;entryDx=0;entryDy=0;exitX=0;exitY=0.5;exitDx=0;exitDy=0;fillColor=#d80073;strokeColor=#000000;" parent="1" source="wl2WWaKPfZZMzR-r66IU-210" target="wl2WWaKPfZZMzR-r66IU-130" edge="1">
          <mxGeometry width="50" height="50" relative="1" as="geometry">
            <mxPoint x="424" y="-12" as="sourcePoint" />
            <mxPoint x="410" y="-74" as="targetPoint" />
          </mxGeometry>
        </mxCell>
        <mxCell id="wl2WWaKPfZZMzR-r66IU-215" value="" style="endArrow=none;html=1;rounded=0;fontSize=12;startSize=8;endSize=8;curved=1;entryX=1;entryY=0.5;entryDx=0;entryDy=0;exitX=0;exitY=1;exitDx=0;exitDy=0;fillColor=#d80073;strokeColor=#000000;" parent="1" source="wl2WWaKPfZZMzR-r66IU-209" target="wl2WWaKPfZZMzR-r66IU-130" edge="1">
          <mxGeometry width="50" height="50" relative="1" as="geometry">
            <mxPoint x="422" y="-81" as="sourcePoint" />
            <mxPoint x="410" y="-74" as="targetPoint" />
          </mxGeometry>
        </mxCell>
        <mxCell id="wl2WWaKPfZZMzR-r66IU-218" value="status" style="ellipse;whiteSpace=wrap;html=1;fontSize=16;fillColor=#6a00ff;strokeColor=#3700CC;fontColor=#ffffff;" parent="1" vertex="1">
          <mxGeometry x="-231" y="443" width="120" height="46" as="geometry" />
        </mxCell>
        <mxCell id="wl2WWaKPfZZMzR-r66IU-219" value="" style="endArrow=none;html=1;rounded=0;fontSize=12;startSize=8;endSize=8;curved=1;entryX=0;entryY=0.5;entryDx=0;entryDy=0;exitX=1;exitY=0.5;exitDx=0;exitDy=0;" parent="1" source="wl2WWaKPfZZMzR-r66IU-218" target="wl2WWaKPfZZMzR-r66IU-3" edge="1">
          <mxGeometry width="50" height="50" relative="1" as="geometry">
            <mxPoint x="-102" y="470" as="sourcePoint" />
            <mxPoint x="-59" y="639" as="targetPoint" />
          </mxGeometry>
        </mxCell>
        <mxCell id="wl2WWaKPfZZMzR-r66IU-221" value="" style="endArrow=none;html=1;rounded=0;fontSize=12;startSize=8;endSize=8;curved=1;entryX=1;entryY=0.25;entryDx=0;entryDy=0;" parent="1" source="wl2WWaKPfZZMzR-r66IU-193" target="wl2WWaKPfZZMzR-r66IU-3" edge="1">
          <mxGeometry width="50" height="50" relative="1" as="geometry">
            <mxPoint x="443" y="297" as="sourcePoint" />
            <mxPoint x="493" y="247" as="targetPoint" />
          </mxGeometry>
        </mxCell>
        <mxCell id="wl2WWaKPfZZMzR-r66IU-223" value="" style="endArrow=none;html=1;rounded=0;fontSize=12;startSize=8;endSize=8;entryX=0;entryY=0.5;entryDx=0;entryDy=0;exitX=0.5;exitY=0;exitDx=0;exitDy=0;edgeStyle=orthogonalEdgeStyle;" parent="1" source="wl2WWaKPfZZMzR-r66IU-3" target="wl2WWaKPfZZMzR-r66IU-139" edge="1">
          <mxGeometry width="50" height="50" relative="1" as="geometry">
            <mxPoint x="29" y="156" as="sourcePoint" />
            <mxPoint x="40" y="112" as="targetPoint" />
            <Array as="points">
              <mxPoint x="-4" y="37" />
            </Array>
          </mxGeometry>
        </mxCell>
        <mxCell id="wl2WWaKPfZZMzR-r66IU-224" value="" style="endArrow=none;html=1;rounded=0;fontSize=12;startSize=8;endSize=8;curved=1;entryX=1;entryY=0.5;entryDx=0;entryDy=0;exitX=1;exitY=0.5;exitDx=0;exitDy=0;" parent="1" source="wl2WWaKPfZZMzR-r66IU-139" target="wl2WWaKPfZZMzR-r66IU-58" edge="1">
          <mxGeometry width="50" height="50" relative="1" as="geometry">
            <mxPoint x="433" y="97" as="sourcePoint" />
            <mxPoint x="483" y="47" as="targetPoint" />
          </mxGeometry>
        </mxCell>
        <mxCell id="wl2WWaKPfZZMzR-r66IU-225" value="message_id" style="ellipse;whiteSpace=wrap;html=1;fontSize=16;direction=west;fillColor=#b0e3e6;strokeColor=#0e8088;" parent="1" vertex="1">
          <mxGeometry x="950" y="-97" width="120" height="46" as="geometry" />
        </mxCell>
        <mxCell id="wl2WWaKPfZZMzR-r66IU-226" value="message_time" style="ellipse;whiteSpace=wrap;html=1;fontSize=16;direction=west;fillColor=#b0e3e6;strokeColor=#0e8088;" parent="1" vertex="1">
          <mxGeometry x="948" y="-42" width="120" height="46" as="geometry" />
        </mxCell>
        <mxCell id="wl2WWaKPfZZMzR-r66IU-227" value="Message" style="rounded=0;whiteSpace=wrap;html=1;fontSize=16;direction=west;" parent="1" vertex="1">
          <mxGeometry x="771" y="-51" width="111" height="40" as="geometry" />
        </mxCell>
        <mxCell id="wl2WWaKPfZZMzR-r66IU-228" value="" style="endArrow=none;html=1;rounded=0;fontSize=12;startSize=8;endSize=8;curved=1;entryX=0;entryY=0.5;entryDx=0;entryDy=0;exitX=1;exitY=0.5;exitDx=0;exitDy=0;" parent="1" source="wl2WWaKPfZZMzR-r66IU-226" target="wl2WWaKPfZZMzR-r66IU-227" edge="1">
          <mxGeometry width="50" height="50" relative="1" as="geometry">
            <mxPoint x="733" y="-17" as="sourcePoint" />
            <mxPoint x="784" y="-239" as="targetPoint" />
          </mxGeometry>
        </mxCell>
        <mxCell id="wl2WWaKPfZZMzR-r66IU-229" value="" style="endArrow=none;html=1;rounded=0;fontSize=12;startSize=8;endSize=8;curved=1;entryX=0;entryY=0.5;entryDx=0;entryDy=0;exitX=1;exitY=0.5;exitDx=0;exitDy=0;" parent="1" source="wl2WWaKPfZZMzR-r66IU-225" target="wl2WWaKPfZZMzR-r66IU-227" edge="1">
          <mxGeometry width="50" height="50" relative="1" as="geometry">
            <mxPoint x="729" y="-85" as="sourcePoint" />
            <mxPoint x="776" y="-109" as="targetPoint" />
          </mxGeometry>
        </mxCell>
        <mxCell id="wl2WWaKPfZZMzR-r66IU-230" value="Sends" style="rhombus;whiteSpace=wrap;html=1;fontSize=16;" parent="1" vertex="1">
          <mxGeometry x="534" y="-354" width="121" height="66" as="geometry" />
        </mxCell>
        <mxCell id="wl2WWaKPfZZMzR-r66IU-231" value="" style="endArrow=none;html=1;rounded=0;fontSize=12;startSize=8;endSize=8;entryX=0;entryY=0.5;entryDx=0;entryDy=0;exitX=0.111;exitY=-0.008;exitDx=0;exitDy=0;edgeStyle=orthogonalEdgeStyle;exitPerimeter=0;" parent="1" source="wl2WWaKPfZZMzR-r66IU-3" target="wl2WWaKPfZZMzR-r66IU-230" edge="1">
          <mxGeometry width="50" height="50" relative="1" as="geometry">
            <mxPoint x="433" y="-196" as="sourcePoint" />
            <mxPoint x="477" y="-246" as="targetPoint" />
            <Array as="points">
              <mxPoint x="-4" y="162" />
              <mxPoint x="-4" y="-321" />
            </Array>
          </mxGeometry>
        </mxCell>
        <mxCell id="wl2WWaKPfZZMzR-r66IU-232" value="" style="endArrow=none;html=1;rounded=0;fontSize=12;startSize=8;endSize=8;exitX=1;exitY=0.5;exitDx=0;exitDy=0;entryX=0.5;entryY=1;entryDx=0;entryDy=0;edgeStyle=orthogonalEdgeStyle;" parent="1" source="wl2WWaKPfZZMzR-r66IU-230" target="wl2WWaKPfZZMzR-r66IU-227" edge="1">
          <mxGeometry width="50" height="50" relative="1" as="geometry">
            <mxPoint x="870" y="-261" as="sourcePoint" />
            <mxPoint x="728" y="-321" as="targetPoint" />
          </mxGeometry>
        </mxCell>
        <mxCell id="wl2WWaKPfZZMzR-r66IU-233" value="" style="endArrow=none;html=1;rounded=0;fontSize=12;startSize=8;endSize=8;exitX=0;exitY=1;exitDx=0;exitDy=0;entryX=0.5;entryY=1;entryDx=0;entryDy=0;edgeStyle=orthogonalEdgeStyle;" parent="1" source="wl2WWaKPfZZMzR-r66IU-58" target="wl2WWaKPfZZMzR-r66IU-230" edge="1">
          <mxGeometry width="50" height="50" relative="1" as="geometry">
            <mxPoint x="386" y="34" as="sourcePoint" />
            <mxPoint x="558" y="304" as="targetPoint" />
            <Array as="points">
              <mxPoint x="392" y="32" />
              <mxPoint x="595" y="32" />
            </Array>
          </mxGeometry>
        </mxCell>
        <mxCell id="wl2WWaKPfZZMzR-r66IU-235" value="message" style="ellipse;whiteSpace=wrap;html=1;fontSize=16;direction=west;fillColor=#b0e3e6;strokeColor=#0e8088;" parent="1" vertex="1">
          <mxGeometry x="948" y="7" width="120" height="46" as="geometry" />
        </mxCell>
        <mxCell id="wl2WWaKPfZZMzR-r66IU-236" value="" style="endArrow=none;html=1;rounded=0;fontSize=12;startSize=8;endSize=8;curved=1;entryX=0;entryY=0.25;entryDx=0;entryDy=0;exitX=1;exitY=0.5;exitDx=0;exitDy=0;" parent="1" source="wl2WWaKPfZZMzR-r66IU-235" target="wl2WWaKPfZZMzR-r66IU-227" edge="1">
          <mxGeometry width="50" height="50" relative="1" as="geometry">
            <mxPoint x="958" y="-9" as="sourcePoint" />
            <mxPoint x="892" y="-21" as="targetPoint" />
          </mxGeometry>
        </mxCell>
        <mxCell id="wl2WWaKPfZZMzR-r66IU-240" value="contains" style="rhombus;whiteSpace=wrap;html=1;fontSize=16;direction=north;" parent="1" vertex="1">
          <mxGeometry x="771" y="61" width="114" height="50" as="geometry" />
        </mxCell>
        <mxCell id="wl2WWaKPfZZMzR-r66IU-241" value="" style="endArrow=none;html=1;rounded=0;fontSize=12;startSize=8;endSize=8;curved=1;entryX=1;entryY=0.5;entryDx=0;entryDy=0;exitX=0.5;exitY=0;exitDx=0;exitDy=0;" parent="1" source="wl2WWaKPfZZMzR-r66IU-227" target="wl2WWaKPfZZMzR-r66IU-240" edge="1">
          <mxGeometry width="50" height="50" relative="1" as="geometry">
            <mxPoint x="826" y="32" as="sourcePoint" />
            <mxPoint x="871" y="82" as="targetPoint" />
          </mxGeometry>
        </mxCell>
        <mxCell id="wl2WWaKPfZZMzR-r66IU-242" value="" style="endArrow=none;html=1;rounded=0;fontSize=12;startSize=8;endSize=8;curved=1;exitX=0;exitY=0.5;exitDx=0;exitDy=0;entryX=0.5;entryY=1;entryDx=0;entryDy=0;" parent="1" source="wl2WWaKPfZZMzR-r66IU-240" target="wl2WWaKPfZZMzR-r66IU-99" edge="1">
          <mxGeometry width="50" height="50" relative="1" as="geometry">
            <mxPoint x="756" y="89" as="sourcePoint" />
            <mxPoint x="831" y="115" as="targetPoint" />
          </mxGeometry>
        </mxCell>
        <mxCell id="wl2WWaKPfZZMzR-r66IU-248" value="permission" style="ellipse;whiteSpace=wrap;html=1;fontSize=16;direction=west;fillColor=#60a917;fontColor=#ffffff;strokeColor=#2D7600;" parent="1" vertex="1">
          <mxGeometry x="539" y="544" width="120" height="46" as="geometry" />
        </mxCell>
        <mxCell id="wl2WWaKPfZZMzR-r66IU-249" value="" style="endArrow=none;html=1;rounded=0;fontSize=12;startSize=8;endSize=8;curved=1;entryX=0;entryY=0.25;entryDx=0;entryDy=0;exitX=1;exitY=0.5;exitDx=0;exitDy=0;" parent="1" source="wl2WWaKPfZZMzR-r66IU-248" target="wl2WWaKPfZZMzR-r66IU-88" edge="1">
          <mxGeometry width="50" height="50" relative="1" as="geometry">
            <mxPoint x="301" y="435" as="sourcePoint" />
            <mxPoint x="456" y="478" as="targetPoint" />
          </mxGeometry>
        </mxCell>
        <mxCell id="wl2WWaKPfZZMzR-r66IU-250" value="websites" style="ellipse;whiteSpace=wrap;html=1;fontSize=16;fillColor=#6a00ff;strokeColor=#3700CC;fontColor=#ffffff;" parent="1" vertex="1">
          <mxGeometry x="-237" y="-75" width="120" height="46" as="geometry" />
        </mxCell>
        <mxCell id="wl2WWaKPfZZMzR-r66IU-251" value="" style="endArrow=none;html=1;rounded=0;fontSize=12;startSize=8;endSize=8;curved=1;exitX=1;exitY=0.5;exitDx=0;exitDy=0;entryX=0;entryY=0.5;entryDx=0;entryDy=0;" parent="1" source="wl2WWaKPfZZMzR-r66IU-250" target="wl2WWaKPfZZMzR-r66IU-3" edge="1">
          <mxGeometry width="50" height="50" relative="1" as="geometry">
            <mxPoint x="-93" y="23" as="sourcePoint" />
            <mxPoint x="-100" y="178" as="targetPoint" />
          </mxGeometry>
        </mxCell>
        <mxCell id="wl2WWaKPfZZMzR-r66IU-252" value="user_id" style="ellipse;whiteSpace=wrap;html=1;fontSize=16;fillColor=#6a00ff;strokeColor=#3700CC;fontColor=#ffffff;" parent="1" vertex="1">
          <mxGeometry x="-242" y="-132" width="120" height="46" as="geometry" />
        </mxCell>
        <mxCell id="wl2WWaKPfZZMzR-r66IU-253" value="" style="endArrow=none;html=1;rounded=0;fontSize=12;startSize=8;endSize=8;curved=1;exitX=1;exitY=0.5;exitDx=0;exitDy=0;entryX=0;entryY=0.75;entryDx=0;entryDy=0;" parent="1" source="wl2WWaKPfZZMzR-r66IU-252" target="wl2WWaKPfZZMzR-r66IU-3" edge="1">
          <mxGeometry width="50" height="50" relative="1" as="geometry">
            <mxPoint x="-98" y="-34" as="sourcePoint" />
            <mxPoint x="-65" y="125" as="targetPoint" />
          </mxGeometry>
        </mxCell>
      </root>
    </mxGraphModel>
  </diagram>
</mxfile>
